<?xml version="1.0" encoding="utf-8"?>
<!-- Generator: Adobe Illustrator 24.0.0, SVG Export Plug-In . SVG Version: 6.00 Build 0)  -->
<svg version="1.1" id="Layer_1" xmlns="http://www.w3.org/2000/svg" xmlns:xlink="http://www.w3.org/1999/xlink" x="0px" y="0px"
	 viewBox="0 0 98 102.5" style="enable-background:new 0 0 98 102.5;" xml:space="preserve">
<style type="text/css">
	.st0{fill:#FFFFFF;}
	.st1{fill:#EC661A;}
</style>
<path class="st0" d="M52.9,102c17,0,31.8-6.2,44.6-18.5V41.4l-44.3,21h22.1v8.4c-4.7,4.3-13.3,7.8-21.8,7.8c-8,0-14.6-2.6-19.5-7.9
	c-4.8-5.1-7.5-11.9-7.4-18.9c-0.2-7.1,2.5-13.9,7.5-18.9c5-5.1,11.4-7.6,19.3-7.6c8.5,0,16.6,3.2,22.9,8.9L92,15.9
	C83,7.5,69,1.7,53.7,1.7c-14.8,0-27.3,4.7-37.3,14.2C6.5,25.4,1.5,37.5,1.5,52.1c0,14.5,4.7,26.4,14.3,35.9
	C25.5,97.3,37.8,102,52.9,102z"/>
<path id="Path_34438_00000047023240609379908860000000861183372652726667_" class="st1" d="M52.9,102c17,0,31.8-6.2,44.6-18.5V41.4
	l-44.3,21h22.1v8.4c-4.7,4.3-13.3,7.8-21.8,7.8c-8,0-14.6-2.6-19.5-7.9c-4.8-5.1-7.5-11.9-7.4-18.9c-0.2-7.1,2.5-13.9,7.5-18.9
	c5-5.1,11.4-7.6,19.3-7.6c8.5,0,16.6,3.2,22.9,8.9L92,15.9C83,7.5,69,1.7,53.7,1.7c-14.8,0-27.3,4.7-37.3,14.2
	C6.5,25.4,1.5,37.5,1.5,52.1c0,14.5,4.7,26.4,14.3,35.9C25.5,97.3,37.8,102,52.9,102z"/>
</svg>
